<svg xmlns="http://www.w3.org/2000/svg" xmlns:xlink="http://www.w3.org/1999/xlink" viewBox="0 0 50 50"><defs><style>.cls-1,.cls-2{fill:none;}.cls-2{clip-rule:evenodd;}.cls-3{clip-path:url(#clip-path);}.cls-4{fill:#fff;opacity:0.7;}.cls-5{clip-path:url(#clip-path-2);}.cls-6{clip-path:url(#clip-path-3);}.cls-7{fill:#303036;}</style><clipPath id="clip-path" transform="translate(5 5)"><rect class="cls-1" width="40" height="40"/></clipPath><clipPath id="clip-path-2" transform="translate(5 5)"><path class="cls-2" d="M16.41,32a.67.67,0,0,0,.48-.2L28.2,20.49a.67.67,0,0,0,.2-.48.66.66,0,0,0-.2-.48L16.89,8.21A.69.69,0,0,0,16.4,8a.68.68,0,0,0-.69.69.68.68,0,0,0,.22.48L26.76,20,15.93,30.84A.68.68,0,0,0,16.41,32Z"/></clipPath><clipPath id="clip-path-3" transform="translate(5 5)"><rect class="cls-1" x="-640" y="-400" width="1440" height="6775"/></clipPath></defs><g id="Layer_2" data-name="Layer 2"><g id="Layer_1-2" data-name="Layer 1"><g class="cls-3"><rect class="cls-4" width="50" height="50"/></g><g class="cls-5"><g class="cls-6"><rect class="cls-7" x="15.71" y="8" width="22.69" height="34"/></g></g></g></g></svg>